# xmcd
#
# Track frame offsets:
#	150
#	17480
#	35565
#	50742
#	71540
#	92080
#	110095
#	132482
#	149227
#	168167
#	187820
#
# Disc length: 2791 seconds
#
# Revision: 0
# Processed by: cddbd v1.5PL3 Copyright (c) Steve Scherf et al.
# Submitted via: audiograbber 1.82.02
#
DISCID=9f0ae50b
DTITLE=Gold  - Gold 99
DYEAR=1999
DGENRE=Chanson
TTITLE0=Hello
TTITLE1=Si haut
TTITLE2=Voler du temps
TTITLE3=Le fils du pêcheur
TTITLE4=Même si je perds le nord
TTITLE5=Pendant c'temps
TTITLE6=Les yeux des métis
TTITLE7=Le long chemin
TTITLE8=Les voix du Pacifique
TTITLE9=Si je savais
TTITLE10=Samarkand
EXTD=
EXTT0=
EXTT1=
EXTT2=
EXTT3=
EXTT4=
EXTT5=
EXTT6=
EXTT7=
EXTT8=
EXTT9=
EXTT10=
PLAYORDER=
